<!DOCTYPE svg PUBLIC "-//W3C//DTD SVG 1.1//EN" "http://www.w3.org/Graphics/SVG/1.1/DTD/svg11.dtd">
<!-- Uploaded to: SVG Repo, www.svgrepo.com, Transformed by: SVG Repo Mixer Tools -->
<svg width="64px" height="64px" viewBox="0 0 24 24" fill="none" xmlns="http://www.w3.org/2000/svg" stroke="#292929">
<g id="SVGRepo_bgCarrier" stroke-width="0"/>
<g id="SVGRepo_tracerCarrier" stroke-linecap="round" stroke-linejoin="round"/>
<g id="SVGRepo_iconCarrier"> <circle cx="12" cy="12" r="10" stroke="#292929" stroke-width="0.4800000000000001"/> <path d="M14 7C14 8.10457 13.1046 9 12 9C10.8954 9 10 8.10457 10 7C10 5.89543 10.8954 5 12 5C13.1046 5 14 5.89543 14 7Z" stroke="#292929" stroke-width="0.4800000000000001"/> <path d="M18 10C18 10 14.4627 11.5 12 11.5C9.53727 11.5 6 10 6 10" stroke="#292929" stroke-width="0.4800000000000001" stroke-linecap="round"/> <path d="M12 12V13.4522M12 13.4522C12 14.0275 12.1654 14.5906 12.4765 15.0745L15 19M12 13.4522C12 14.0275 11.8346 14.5906 11.5235 15.0745L9 19" stroke="#292929" stroke-width="0.4800000000000001" stroke-linecap="round"/> </g>
</svg>