<svg fill="none" height="15" viewBox="0 0 15 15" width="15" xmlns="http://www.w3.org/2000/svg"><path d="m.5.5v-.5c-.139826 0-.273264.0585498-.367941.161445-.0946776.102896-.14194377.240735-.13033187.380078zm14 0 .4983.041523c.0116-.139343-.0357-.277182-.1304-.380078-.0946-.1028952-.2281-.161445-.3679-.161445zm-1 12 .1581.4743c.1898-.0632.3236-.2335.3402-.4328zm-6 2-.15811.4743c.10263.0343.21359.0343.31622 0zm-6-2-.49827.0415c.01661.1993.15041.3696.34016.4328zm9-9h.5v-.5h-.5zm0 6 .1581.47434.3419-.11396v-.36038zm-3 1-.15811.4743.15811.0527.15811-.0527zm-3-1h-.5v.36038l.34189.11396zm-4-8.5h14v-1h-14zm13.5017-.541523-1 12.000023.9966.083 1-11.999977zm-.6598 11.567223-6.00001 2 .31622.9486 5.99999-2zm-5.68379 2-6-2-.31622.9486 6 2zm-5.65984-1.5672-.999997-12.000023-.99654587.083046 1.00000287 11.999977zm8.50173-9.4585h-6.5v1h6.5zm-4.5 4h4.5v-1h-4.5zm4-.5v3h1v-3zm.3419 2.52566-3.00001 1.00004.31622.9486 2.99999-.99996zm-2.68379 1.00004-3-1.00004-.31622.94868 3 .99996zm-2.65811-.5257v-1.5h-1v1.5zm5-6v3h1v-3z" fill="#000"/></svg>