<svg fill="none" height="24" viewBox="0 0 24 24" width="24" xmlns="http://www.w3.org/2000/svg"><g fill="#000"><path d="m12.0005 22.71c-.16 0-.32-.02-.48-.07l-6.08001-1.74c-.69-.2-1.18001-.78-1.26001-1.49l-1.79999-16.22c-.05-.49.1-.99.44-1.36.33-.37.80999-.58 1.29999-.58h15.77002c.5 0 .97.21 1.3.58s.49.87.44 1.36l-1.8 16.22c-.08.71-.57 1.29-1.26 1.49l-6.08 1.74c-.17.05-.33.07-.49.07zm-7.88002-19.96c-.1 0-.16.05-.19.08s-.07.1-.06.19l1.79999 16.22c.01.1.07999.19.17999.21l6.08004 1.74c.04.01.09.01.14 0l6.08-1.74c.1-.03.17-.11.18-.21l1.8-16.22c.01-.1-.04-.16-.06-.19-.03-.03-.09-.08-.19-.08z"/><path d="m11.7498 18c-.07 0-.14-.01-.21-.03l-3.5-1c-.32-.09-.53998-.39-.53998-.72v-2c0-.41.34-.75.75-.75s.75.34.75.75v1.43l2.74998.79 2.8-.8.37-3.67h-6.66998c-.38 0-.7-.29-.75-.67l-.5-4.5c-.02-.21.04001-.42.19001-.58.14-.16.34999-.25.55999-.25h8.49998c.41 0 .75.34.75.75s-.34.75-.75.75h-7.65995l.32996 3h6.82999c.21 0 .41.09.56.25.14.16.21.37.19.58l-.5 5c-.03.31-.24.56-.54.65l-3.5 1c-.07.01-.14.02-.21.02z"/></g></svg>