<svg fill="none" height="24" viewBox="0 0 24 24" width="24" xmlns="http://www.w3.org/2000/svg"><g fill="#000"><path d="m12.0005 22.71c-.16 0-.32-.02-.48-.07l-6.08001-1.74c-.69-.2-1.18001-.78-1.26001-1.49l-1.79999-16.22c-.05-.49.1-.99.44-1.36.33-.37.80999-.58 1.29999-.58h15.77002c.5 0 .97.21 1.3.58s.49.87.44 1.36l-1.8 16.22c-.08.71-.57 1.29-1.26 1.49l-6.08 1.74c-.17.05-.33.07-.49.07zm-7.88002-19.96c-.1 0-.16.05-.19.08s-.07.1-.06.19l1.79999 16.22c.01.1.07999.19.17999.21l6.08004 1.74c.05.01.09.01.14 0l6.08-1.74c.1-.03.17-.11.18-.21l1.8-16.22c.01-.1-.04-.16-.06-.19-.03-.03-.09-.08-.19-.08z"/><path d="m10.6198 16.7398c-.07 0-.14-.01-.21-.03l-3.11997-.9c-.4-.12-.62995-.53-.50995-.93.11-.4.52999-.62.92999-.51l2.15998.62v-7.98003c0-.41.33995-.75.74995-.75s.75.34.75.75v8.97003c0 .24-.1099.46-.2999.6-.13.1-.2901.16-.4501.16z"/><path d="m12.9001 16.7501c-.34 0-.64-.2301-.73-.5701-.1-.4.14-.8099.55-.9099l3.03-.7601v-1.6999l-2.29.33c-.22.03-.43-.03-.6-.18-.16-.14-.26-.35-.26-.57v-4.95004c0-.37.27-.69001.64-.74001l3.15-.45c.41-.06.79.23.85.64s-.23.79001-.64.85001l-2.51.36v3.43004l2.29-.3301c.22-.03.43.0301.6.1801.16.14.26.35.26.5699v3.1501c0 .34-.23.64-.57.73l-3.6.8999c-.05.01-.11.0201-.17.0201z"/></g></svg>